<svg width="260" height="60" viewBox="0 0 260 60" fill="none" xmlns="http://www.w3.org/2000/svg">
<g clip-path="url(#clip0)">
<path d="M114.245 26.8272H115.674C126.224 26.8272 127.548 22.0869 127.688 20.1466H119.439C119.264 20.4951 118.776 21.8196 115.221 21.8196C111.526 21.8196 110.214 20.3208 109.83 18.1598H127.758V17.4627C127.758 12.0019 125.91 6.49475 115.326 6.49475H113.792C103.94 6.49475 101.709 11.9555 101.709 16.417V16.905C101.72 21.3549 104.044 26.8272 114.245 26.8272ZM114.663 11.1886C118.532 11.1886 119.334 12.8966 119.334 14.3605H109.935C110.318 12.4435 111.503 11.1886 114.663 11.1886Z" fill="#273B8A"/>
<path d="M139.353 16.2079C139.353 13.8377 140.294 12.4434 142.246 12.4434C144.198 12.4434 144.825 13.7331 144.825 16.1033V16.6958H152.796C152.83 15.8942 152.865 15.2668 152.865 14.1862C152.865 9.89898 151.123 6.5296 146.115 6.5296H145.871C141.723 6.5296 139.853 9.17863 139.295 10.1197V6.94787H131.464V26.3392H139.365V16.2079H139.353Z" fill="#273B8A"/>
<path d="M163.961 16.7307C163.961 14.4302 165.46 12.4435 168.423 12.4435C171.49 12.4435 172.675 14.3257 172.675 16.4519V26.3392H180.576V13.8028C180.576 10.2127 178.031 6.4599 172.326 6.4599H171.978C167.412 6.4599 164.844 8.8998 163.903 10.0152V6.94788H156.072V26.3392H163.973V16.7307H163.961Z" fill="#273B8A"/>
<path d="M56.6172 6.43665H55.4321C44.255 6.43665 42.7562 13.0825 42.7562 16.4983V16.9863C42.7562 20.5067 44.2899 26.8737 55.4669 26.8737H56.5823C68.1079 26.8737 69.2581 20.4719 69.2581 17.0211V16.4635C69.2581 13.0941 68.1776 6.43665 56.6172 6.43665ZM56.164 21.413H55.8503C51.8071 21.413 50.9705 18.5548 50.9705 16.5796C50.9705 14.5232 51.8071 11.8393 55.8503 11.8393H56.164C60.0679 11.8393 61.0438 14.5232 61.0438 16.5796C61.0438 18.5199 60.0679 21.413 56.164 21.413Z" fill="#273B8A"/>
<path d="M82.2826 26.7343H82.7008C87.2321 26.7343 89.4164 24.7127 90.0786 23.9458V26.3509H97.9792V0H90.0786V8.84172C89.2072 8.17946 87.1159 6.5761 82.6311 6.5761H82.2129C74.6957 6.5761 72.0118 11.6186 72.0118 16.3241V17.0212C72.0118 21.7964 74.8699 26.7343 82.2826 26.7343ZM80.1912 16.5681C80.1912 14.6161 81.1672 12.0368 84.9665 12.0368H85.315C88.94 12.0368 90.1251 14.5116 90.1251 16.5681V16.6726C90.1251 18.6943 88.94 21.2387 85.315 21.2387H84.9665C81.2021 21.2387 80.1912 18.52 80.1912 16.6726V16.5681Z" fill="#273B8A"/>
<path d="M56.4081 32.7179H55.223C44.046 32.7179 42.5472 39.3637 42.5472 42.7796V43.2675C42.5472 46.788 44.0808 53.1549 55.2579 53.1549H56.3733C67.8989 53.1549 69.0491 46.7531 69.0491 43.3024V42.7447C69.0491 39.3637 67.9686 32.7179 56.4081 32.7179ZM55.955 47.6826H55.6413C51.598 47.6826 50.7615 44.8244 50.7615 42.8493C50.7615 40.7928 51.598 38.1089 55.6413 38.1089H55.955C59.8588 38.1089 60.8348 40.7928 60.8348 42.8493C60.8348 44.7896 59.8588 47.6826 55.955 47.6826Z" fill="#273B8A"/>
<path d="M87.4064 32.8224H87.1624C83.0146 32.8224 81.144 35.4714 80.5863 36.4125V33.229H72.7554V52.632H80.656V42.5006C80.656 40.1305 81.5971 38.7362 83.549 38.7362C85.5009 38.7362 86.1283 40.0259 86.1283 42.3961V42.9886H94.0987C94.1335 42.1869 94.1684 41.5595 94.1684 40.479C94.1568 36.1918 92.414 32.8224 87.4064 32.8224Z" fill="#273B8A"/>
<path d="M120.659 33.229H111.817L105.543 40.7578V33.2987H97.6423V52.632H105.543V43.9181L112.41 52.632H121.53L113.037 41.9429L120.659 33.229Z" fill="#273B8A"/>
<path d="M136.762 40.4093L133.939 40.3047C131.359 40.2002 130.662 39.6425 130.662 38.7014C130.662 37.83 131.325 37.2374 133.939 37.2374H134.078C137.006 37.2374 137.285 38.2831 137.459 38.9454H145.673V38.8757C145.673 36.0872 144.244 32.8224 134.392 32.8224H133.52C124.748 32.8224 122.692 35.5063 122.692 38.7362V38.9454C122.692 42.0127 124.679 44.5455 131.499 44.9289L134.392 45.1381C137.355 45.3123 137.843 45.8003 137.843 46.7763C137.843 47.6128 137.18 48.3796 134.462 48.3796H134.392C131.359 48.3796 131.011 47.1248 130.906 46.5323H122.448V46.6717C122.448 48.6236 123.25 53.0735 133.59 53.0735H134.531C144.558 53.0735 146.022 49.7274 146.022 46.5323V46.2186C146.022 42.9189 144.105 40.6881 136.762 40.4093Z" fill="#273B8A"/>
<path d="M165.564 32.8573H165.216C160.789 32.8573 158.256 34.7744 157.42 35.6806V33.2407H149.554V59.243H157.455V50.3316C158.291 51.0636 160.487 53.0155 164.972 53.0155H165.355C173.116 53.0155 175.556 47.5083 175.556 43.163V42.5704C175.556 37.83 173.186 32.8573 165.564 32.8573ZM167.33 42.9771C167.33 44.8941 166.354 47.5083 162.555 47.5083H162.276C158.547 47.5083 157.397 44.9987 157.397 43.0235V42.8493C157.397 40.8973 158.547 38.318 162.276 38.318H162.555C166.354 38.318 167.33 40.9322 167.33 42.8493V42.9771Z" fill="#273B8A"/>
<path d="M201.535 45.5912V39.3986C201.535 36.6101 200.769 32.7876 190.637 32.7876H189.522C179.53 32.7876 178.589 37.1097 178.589 39.3637V39.3986H186.524C186.524 38.7363 186.838 37.4466 190.08 37.4466H190.184C193.426 37.4466 193.809 38.2832 193.809 39.1546V39.1894C193.809 39.8865 193.461 40.2351 192.38 40.3397L186.989 40.7579C180.204 41.3156 178.112 43.163 178.112 46.6718V46.8112C178.112 50.2619 180.552 53.0039 185.943 53.0039H186.536C191.207 53.0039 193.251 50.9474 194.018 50.076C194.402 51.1914 195.308 52.6205 197.295 52.6205H203.696V46.9506H202.79C201.71 46.9506 201.535 46.5324 201.535 45.5912ZM193.797 44.7547C193.797 46.2535 192.473 48.4494 188.929 48.4494C186.838 48.4494 185.967 47.6477 185.967 46.5672V46.4975C185.967 45.2775 186.838 44.8244 189.905 44.3016C191.578 44.0227 193.147 43.709 193.809 43.5348V44.7547H193.797Z" fill="#273B8A"/>
<path d="M219.254 32.7179H217.755C207.449 32.7179 205.672 38.806 205.672 42.6053V43.0933C205.672 46.9274 207.414 53.1549 217.79 53.1549H219.498C229.768 53.1549 231.267 47.7175 231.267 44.8012H223.018C223.018 45.3589 222.391 47.6942 218.766 47.6942H218.452C214.966 47.6942 213.886 45.08 213.886 42.826V42.7912C213.886 40.5604 214.862 38.1205 218.382 38.1205H218.696C222.286 38.1205 222.914 40.2816 223.018 40.8393H231.267V40.8044C231.267 38.074 229.838 32.7179 219.254 32.7179Z" fill="#273B8A"/>
<path d="M260 43.7439C260 38.2832 258.153 32.776 247.568 32.776H246.034C236.182 32.776 233.951 38.2367 233.951 42.6982V43.1862C233.951 47.6477 236.286 53.1085 246.488 53.1085H247.917C258.466 53.1085 259.791 48.3681 259.93 46.4278H251.681C251.507 46.7764 251.019 48.1009 247.464 48.1009C243.769 48.1009 242.456 46.6021 242.073 44.441H260V43.7439ZM242.165 40.6534C242.549 38.7363 243.734 37.4815 246.906 37.4815C250.775 37.4815 251.577 39.1894 251.577 40.6534H242.165Z" fill="#273B8A"/>
<path d="M16.5216 0.0929565L12.6991 12.9663L16.754 26.4322L20.5416 13.7099L16.5216 0.0929565Z" fill="#273B8A"/>
<path d="M29.0348 14.3373L32.5552 26.4438H41.0368L33.2756 0.0929565L29.0348 14.3373Z" fill="#273B8A"/>
<path d="M20.4952 45.5331L24.5152 59.1501L28.3377 46.2767L24.2828 32.8108L20.4952 45.5331Z" fill="#273B8A"/>
<path d="M0 32.7992L7.77281 59.1501L12.002 44.9057L8.48155 32.7992H0Z" fill="#273B8A"/>
<path d="M16.5216 0.0929565H7.84252L0 26.4438H8.69068L16.5216 0.0929565Z" fill="#4F71BF"/>
<path d="M25.433 26.4438L33.2755 0.0929565H24.5965L16.754 26.4322V26.4438H25.433Z" fill="#4F71BF"/>
<path d="M32.346 32.7992L24.5151 59.1501H33.1942L41.0367 32.7992H32.346Z" fill="#4F71BF"/>
<path d="M15.6037 32.7992L7.77283 59.1501H16.4403L24.2828 32.8108V32.7992H15.6037Z" fill="#4F71BF"/>
</g>
<defs>
<clipPath id="clip0">
<rect width="260" height="59.243" fill="white"/>
</clipPath>
</defs>
</svg>
